<svg xmlns="http://www.w3.org/2000/svg" viewBox="0 0 800 500"><rect width="800" height="500" fill="#F6F3EC"/><rect x="60" y="60" width="300" height="200" fill="#FFFFFF" stroke="#13294B" stroke-width="5"/><text x="210.0" y="166.0" text-anchor="middle" font-family="Arial,Helvetica,sans-serif" font-size="18" fill="#13294B">Living room</text><rect x="360" y="60" width="240" height="200" fill="#FFFFFF" stroke="#13294B" stroke-width="5"/><text x="480.0" y="166.0" text-anchor="middle" font-family="Arial,Helvetica,sans-serif" font-size="18" fill="#13294B">Kitchen</text><rect x="600" y="60" width="140" height="200" fill="#FFFFFF" stroke="#13294B" stroke-width="5"/><text x="670.0" y="166.0" text-anchor="middle" font-family="Arial,Helvetica,sans-serif" font-size="18" fill="#13294B">Laundry</text><rect x="60" y="260" width="220" height="180" fill="#FFFFFF" stroke="#13294B" stroke-width="5"/><text x="170.0" y="356.0" text-anchor="middle" font-family="Arial,Helvetica,sans-serif" font-size="18" fill="#13294B">Bedroom 2</text><rect x="280" y="260" width="160" height="180" fill="#FFFFFF" stroke="#13294B" stroke-width="5"/><text x="360.0" y="356.0" text-anchor="middle" font-family="Arial,Helvetica,sans-serif" font-size="18" fill="#13294B">Bath 2</text><rect x="440" y="260" width="300" height="180" fill="#FFFFFF" stroke="#13294B" stroke-width="5"/><text x="590.0" y="356.0" text-anchor="middle" font-family="Arial,Helvetica,sans-serif" font-size="18" fill="#13294B">Primary suite</text>
<rect x="440" y="120" width="120" height="50" rx="4" fill="#E9E1D0" stroke="#13294B" stroke-width="2"/><text x="500" y="151" text-anchor="middle" font-family="Arial" font-size="14" fill="#13294B">Island</text>
<rect x="140" y="252" width="60" height="16" fill="#FFFFFF"/><rect x="330" y="252" width="50" height="16" fill="#FFFFFF"/><rect x="560" y="252" width="60" height="16" fill="#FFFFFF"/><rect x="180" y="52" width="60" height="16" fill="#F2BC00"/>
<g font-family="Arial,Helvetica,sans-serif" font-size="15" font-weight="700"><rect x="16" y="458" width="168" height="28" rx="14" fill="#0F1E3A" opacity=".75"/><text x="100" y="477" fill="#fff" text-anchor="middle">Sample floor plan</text></g></svg>